{"title":"Il.Grande.Gatsby.2013.iTALiAN.AC3.BRRip.3D.HSBS.mp4","uid":8873579,"size":2356143410,"categoryP":"video","categoryS":"3d","magnet":"?xt=urn:btih:fab03df44404198de4951127fb29fd67103085cf&amp;dn=Il.Grande.Gatsby.2013.iTALiAN.AC3.BRRip.3D.HSBS.mp4&amp;tr=udp%3A%2F%2Ftracker.openbittorrent.com%3A80&amp;tr=udp%3A%2F%2Fopen.demonii.com%3A1337&amp;tr=udp%3A%2F%2Ftracker.coppersurfer.tk%3A6969&amp;tr=udp%3A%2F%2Fexodus.desync.com%3A6969","seeders":2,"leechers":0,"uploader":"Alarinj","files":1,"time":1378134663,"description":"General\nComplete name                            : Il.Grande.Gatsby.2013.iTALiAN.AC3.BRRip.3D.HSBS.mp4\nFormat                                   : MPEG-4\nFormat profile                           : Base Media\nCodec ID                                 : isom\nFile size                                : 2.19 GiB\nDuration                                 : 2h 22mn\nOverall bit rate                         : 2 210 Kbps\nWriting application                      : Lavf54.59.106\n\nVideo\nID                                       : 1\nFormat                                   : AVC\nFormat/Info                              : Advanced Video Codec\nFormat profile                           : &lt;a class=&quot;__cf_email__&quot; href=&quot;/cdn-cgi/l/email-protection&quot; data-cfemail=&quot;afe7c6c8c7efe39b819e&quot;&gt;[email&amp;#160;protected]&lt;/a&gt;&lt;script cf-hash='f9e31' type=&quot;text/javascript&quot;&gt;\n/* &lt;![CDATA[ */!function(){try{var t=&quot;currentScript&quot;in document?document.currentScript:function(){for(var t=document.getElementsByTagName(&quot;script&quot;),e=t.length;e--;)if(t[e].getAttribute(&quot;cf-hash&quot;))return t[e]}();if(t&amp;&amp;t.previousSibling){var e,r,n,i,c=t.previousSibling,a=c.getAttribute(&quot;data-cfemail&quot;);if(a){for(e=&quot;&quot;,r=parseInt(a.substr(0,2),16),n=2;a.length-n;n+=2)i=parseInt(a.substr(n,2),16)^r,e+=String.fromCharCode(i);e=document.createTextNode(e),c.parentNode.replaceChild(e,c)}}}catch(u){}}();/* ]]&gt; */&lt;/script&gt;\nFormat settings, CABAC                   : Yes\nFormat settings, ReFrames                : 4 frames\nCodec ID                                 : avc1\nCodec ID/Info                            : Advanced Video Coding\nDuration                                 : 2h 22mn\nBit rate                                 : 1 959 Kbps\nWidth                                    : 1 920 pixels\nHeight                                   : 1 080 pixels\nDisplay aspect ratio                     : 16:9\nFrame rate mode                          : Constant\nFrame rate                               : 23.976 fps\nColor space                              : YUV\nChroma subsampling                       : 4:2:0\nBit depth                                : 8 bits\nScan type                                : Progressive\nBits/(Pixel*Frame)                       : 0.039\nStream size                              : 1.94 GiB (89%)\nWriting library                          : x264 core 135 r2 f0c1c53\nMatrix coefficients                      : BT.709\n\nAudio\nID                                       : 2\nFormat                                   : AAC\nFormat/Info                              : Advanced Audio Codec\nFormat profile                           : LC\nCodec ID                                 : 40\nDuration                                 : 2h 22mn\nBit rate mode                            : Constant\nBit rate                                 : 243 Kbps\nChannel(s)                               : 2 channels\nOriginal Channel count                   : 6 channels\nChannel positions                        : Front: L C R, Side: L R, LFE\nSampling rate                            : 48.0 KHz\nCompression mode                         : Lossy\nStream size                              : 247 MiB (11%)","torrent":{"xt":"urn:btih:fab03df44404198de4951127fb29fd67103085cf","amp;dn":"Il.Grande.Gatsby.2013.iTALiAN.AC3.BRRip.3D.HSBS.mp4","amp;tr":["udp%3A%2F%2Ftracker.openbittorrent.com%3A80","udp%3A%2F%2Fopen.demonii.com%3A1337","udp%3A%2F%2Ftracker.coppersurfer.tk%3A6969","udp%3A%2F%2Fexodus.desync.com%3A6969"],"infoHash":"fab03df44404198de4951127fb29fd67103085cf","infoHashBuffer":{"type":"Buffer","data":[250,176,61,244,68,4,25,141,228,149,17,39,251,41,253,103,16,48,133,207]},"announce":[],"urlList":[]}}